<svg width="16" height="16" viewBox="0 0 16 16" fill="none" xmlns="http://www.w3.org/2000/svg">
<path fill-rule="evenodd" clip-rule="evenodd" d="M7.98501 5.49184e-07C12.395 3.25791e-07 15.97 3.57501 15.97 7.985C15.97 12.395 12.395 15.97 7.98501 15.97C3.57501 15.97 -1.34845e-07 12.395 -3.01184e-07 7.985C-4.67524e-07 3.57501 3.57501 7.72578e-07 7.98501 5.49184e-07ZM11.8916 8.57095C11.872 8.59439 11.8525 8.61783 11.8291 8.64127L8.14126 12.3447C7.96937 12.5322 7.71935 12.626 7.48495 12.626C7.25056 12.626 7.01616 12.5322 6.82864 12.3447C6.46924 11.9697 6.46924 11.3759 6.82864 11.0165L8.90695 8.92255L4.6097 8.92255C4.09403 8.92255 3.67212 8.50063 3.67212 7.98496C3.67212 7.46929 4.09403 7.04738 4.6097 7.04738L8.90695 7.04738L6.82864 4.93781C6.46924 4.56278 6.46924 3.96897 6.82864 3.60957C7.20368 3.25016 7.79748 3.25016 8.15688 3.60957L11.8447 7.2974C11.8603 7.32084 11.8799 7.34428 11.8994 7.36772C11.9189 7.39116 11.9385 7.4146 11.9541 7.43804L11.9541 7.45366C11.9853 7.50054 12.0166 7.56305 12.0322 7.60993L12.0322 7.62555L12.0322 7.62559C12.0479 7.67246 12.0635 7.71933 12.0791 7.78182L12.0791 7.79745C12.0947 7.85995 12.0947 7.90683 12.0947 7.96934C12.0947 8.03184 12.0947 8.07872 12.0791 8.14123L12.0791 8.15685C12.0713 8.18029 12.0635 8.20764 12.0557 8.23498C12.0478 8.26233 12.04 8.28968 12.0322 8.31312L12.0322 8.32874C12.0166 8.39125 11.9853 8.43813 11.9541 8.48501L11.9541 8.50063C11.9306 8.52407 11.9111 8.54751 11.8916 8.57095Z" fill="white"/>
</svg>
