<svg width="32" height="32" viewBox="0 0 32 32" fill="none" xmlns="http://www.w3.org/2000/svg">
<path d="M16 32C24.8366 32 32 24.8366 32 16C32 7.16344 24.8366 0 16 0C7.16344 0 0 7.16344 0 16C0 24.8366 7.16344 32 16 32Z" fill="#24414E"/>
<path d="M16 6C10.475 6 6 10.475 6 16C6 21.525 10.475 26 16 26C21.525 26 26 21.525 26 16C26 10.475 21.525 6 16 6ZM16.5 12C17.675 11.975 18.825 11.825 19.9 11.575C20.25 12.75 20.45 14.075 20.5 15.5H16.5V12ZM16.5 11V7.05C17.75 7.35 18.85 8.675 19.575 10.6C18.6 10.825 17.575 10.975 16.5 11ZM15.5 7.05V11C14.425 10.975 13.4 10.85 12.425 10.625C13.15 8.7 14.25 7.35 15.5 7.05ZM15.5 12V15.5H11.5C11.55 14.075 11.75 12.75 12.1 11.575C13.175 11.825 14.325 11.95 15.5 12ZM10.5 15.5H7C7.1 13.575 7.8 11.825 8.925 10.425C9.575 10.775 10.3 11.075 11.1 11.325C10.775 12.55 10.55 13.975 10.5 15.5ZM10.5 16.5C10.55 18.025 10.75 19.425 11.125 20.7C10.325 20.95 9.6 21.25 8.95 21.6C7.825 20.175 7.125 18.425 7.025 16.525H10.5V16.5ZM11.5 16.5H15.5V20C14.325 20.025 13.175 20.175 12.1 20.425C11.75 19.25 11.55 17.925 11.5 16.5ZM15.5 21V24.925C14.25 24.625 13.15 23.3 12.425 21.375C13.4 21.175 14.425 21.025 15.5 21ZM16.5 24.95V21C17.575 21.025 18.6 21.15 19.575 21.375C18.85 23.3 17.75 24.65 16.5 24.95ZM16.5 20V16.5H20.5C20.45 17.925 20.25 19.25 19.9 20.425C18.825 20.175 17.675 20.05 16.5 20ZM21.5 16.5H25C24.9 18.425 24.2 20.175 23.075 21.575C22.425 21.225 21.7 20.925 20.9 20.675C21.225 19.425 21.45 18.025 21.5 16.5ZM21.5 15.5C21.45 13.975 21.25 12.575 20.875 11.3C21.675 11.05 22.4 10.75 23.05 10.4C24.175 11.825 24.875 13.575 24.975 15.475L21.5 15.5ZM22.375 9.65C21.825 9.925 21.225 10.175 20.575 10.375C20.15 9.225 19.6 8.25 18.925 7.5C20.225 7.95 21.4 8.7 22.375 9.65ZM13.075 7.5C12.425 8.225 11.875 9.2 11.425 10.375C10.775 10.175 10.175 9.95 9.625 9.675C10.6 8.675 11.775 7.95 13.075 7.5ZM9.625 22.35C10.175 22.075 10.775 21.825 11.425 21.625C11.85 22.775 12.4 23.75 13.075 24.5C11.775 24.05 10.6 23.3 9.625 22.35ZM18.925 24.5C19.575 23.775 20.15 22.775 20.575 21.625C21.225 21.825 21.825 22.05 22.375 22.35C21.4 23.3 20.225 24.05 18.925 24.5Z" fill="white"/>
</svg>
